HIERARCHY
ROOT SpineBase
{
  OFFSET 0.000000 0.000000 0.000000
  CHANNELS 6 Xposition Yposition Zposition Zrotation Xrotation Yrotation
  JOINT SpineMid
  {
    OFFSET 0.000000 32.536812 -0.000000
    CHANNELS 3 Zrotation Xrotation Yrotation
    JOINT SpineShoulder
    {
      OFFSET -0.084782 24.123646 -0.895277
      CHANNELS 3 Zrotation Xrotation Yrotation
      JOINT Neck
      {
        OFFSET -0.098741 7.972548 -0.651375
        CHANNELS 3 Zrotation Xrotation Yrotation
        JOINT Head
        {
          OFFSET -2.151938 8.511446 5.270422
          CHANNELS 3 Zrotation Xrotation Yrotation
          End Site
          {
            OFFSET 0 0 0
          }
        }
      }
      JOINT ShoulderLeft
      {
        OFFSET -3.423600 -4.664272 -11.768411
        CHANNELS 3 Zrotation Xrotation Yrotation
        JOINT ElbowLeft
        {
          OFFSET -5.654161 -28.385704 -5.896137
          CHANNELS 3 Zrotation Xrotation Yrotation
          JOINT WristLeft
          {
            OFFSET -4.649555 -24.453425 7.897242
            CHANNELS 3 Zrotation Xrotation Yrotation
            JOINT HandLeft
            {
              OFFSET 0.245078 -4.105842 2.097938
              CHANNELS 3 Zrotation Xrotation Yrotation
              JOINT HandTipLeft
              {
                OFFSET -1.235959 -6.171561 2.192659
                CHANNELS 3 Zrotation Xrotation Yrotation
                End Site
                {
                  OFFSET 0 0 0
                }
              }
              JOINT ThumbLeft
              {
                OFFSET -4.747544 1.491882 -1.409070
                CHANNELS 3 Zrotation Xrotation Yrotation
                End Site
                {
                  OFFSET 0 0 0
                }
              }
            }
          }
        }
      }
      JOINT ShoulderRight
      {
        OFFSET 0.480341 -4.660899 -12.205370
        CHANNELS 3 Zrotation Xrotation Yrotation
        JOINT ElbowRight
        {
          OFFSET -9.237764 -24.235812 -5.641015
          CHANNELS 3 Zrotation Xrotation Yrotation
          JOINT WristRight
          {
            OFFSET -5.118818 -20.216102 4.647004
            CHANNELS 3 Zrotation Xrotation Yrotation
            JOINT HandRight
            {
              OFFSET 0.285587 -6.817169 3.736068
              CHANNELS 3 Zrotation Xrotation Yrotation
              JOINT HandTipRight
              {
                OFFSET -4.171611 -8.668119 1.963419
                CHANNELS 3 Zrotation Xrotation Yrotation
                End Site
                {
                  OFFSET 0 0 0
                }
              }
              JOINT ThumbRight
              {
                OFFSET 3.840834 -1.035812 -2.649334
                CHANNELS 3 Zrotation Xrotation Yrotation
                End Site
                {
                  OFFSET 0 0 0
                }
              }
            }
          }
        }
      }
    }
  }
  JOINT HipLeft
  {
    OFFSET -6.214984 -0.969569 0.989013
    CHANNELS 3 Zrotation Xrotation Yrotation
    JOINT KneeLeft
    {
      OFFSET 13.720112 -39.423378 -2.731167
      CHANNELS 3 Zrotation Xrotation Yrotation
      JOINT AnkleLeft
      {
        OFFSET -1.524515 -32.476976 -3.722748
        CHANNELS 3 Zrotation Xrotation Yrotation
        JOINT FootLeft
        {
          OFFSET 5.844928 -4.380604 -0.960250
          CHANNELS 3 Zrotation Xrotation Yrotation
          End Site
          {
            OFFSET 0 0 0
          }
        }
      }
    }
  }
  JOINT HipRight
  {
    OFFSET 4.970351 2.657207 -8.338060
    CHANNELS 3 Zrotation Xrotation Yrotation
    JOINT KneeRight
    {
      OFFSET -2.996515 -40.967331 2.523800
      CHANNELS 3 Zrotation Xrotation Yrotation
      JOINT AnkleRight
      {
        OFFSET 8.994780 -32.679044 -3.655007
        CHANNELS 3 Zrotation Xrotation Yrotation
        JOINT FootRight
        {
          OFFSET -7.295314 -6.426501 1.849734
          CHANNELS 3 Zrotation Xrotation Yrotation
          End Site
          {
            OFFSET 0 0 0
          }
        }
      }
    }
  }
}
MOTION
Frames: 6
Frame Time: 0.033333
58.477953 78.635076 320.696556 -0.000000 -0.000000 39.823582 0.000000 0.000000 -39.823582 -0.000000 0.000000 0.000000 -0.000000 0.000000 0.000000 0.000000 0.000000 0.000000 -0.000000 0.000000 0.000000 -0.000000 0.000000 0.000000 -0.000000 0.000000 0.000000 -0.000000 0.000000 0.000000 0.000000 0.000000 0.000000 0.000000 0.000000 0.000000 -0.000000 0.000000 0.000000 -0.000000 0.000000 0.000000 -0.000000 0.000000 0.000000 -0.000000 0.000000 0.000000 0.000000 0.000000 0.000000 0.000000 0.000000 0.000000 0.000000 0.000000 -39.823582 -0.000000 0.000000 0.000000 -0.000000 0.000000 0.000000 0.000000 0.000000 0.000000 0.000000 0.000000 -39.823582 -0.000000 0.000000 0.000000 -0.000000 0.000000 0.000000 0.000000 0.000000 0.000000
58.487742 78.689856 320.704141 -0.005247 -0.013654 39.701982 0.012759 0.007153 -39.701983 -0.000000 0.000000 0.000000 -0.000000 0.000000 0.000000 0.000000 0.000000 0.000000 -0.000000 0.000000 0.000000 -0.000000 0.000000 0.000000 1.941895 -2.098342 0.893354 -3.839477 4.057753 -1.796061 0.000000 0.000000 0.000000 0.000000 0.000000 0.000000 -0.000000 0.000000 0.000000 -0.000000 0.000000 0.000000 1.870561 -1.289620 0.985479 -1.848597 1.320917 -0.943113 0.000000 0.000000 0.000000 0.000000 0.000000 0.000000 1.838676 -0.686345 -39.599529 -1.250188 -1.912695 -0.097198 -3.204339 0.715834 -0.127399 0.000000 0.000000 0.000000 0.012759 0.007153 -39.701983 -0.000000 0.000000 0.000000 -0.000000 0.000000 0.000000 0.000000 0.000000 0.000000
58.490282 78.761938 320.717611 -0.016031 -0.026261 39.549724 0.029083 0.010041 -39.549730 -0.000000 0.000000 0.000000 -0.000000 0.000000 0.000000 0.000000 0.000000 0.000000 -0.429862 -0.884472 0.262377 0.433959 0.882469 -0.269037 3.354552 -3.553090 1.578591 -7.224853 7.277013 -3.143688 0.000000 0.000000 0.000000 0.000000 0.000000 0.000000 -0.000000 0.000000 0.000000 -0.000000 0.000000 0.000000 3.207610 -2.333443 1.704774 -1.774435 2.629272 -1.441480 0.000000 0.000000 0.000000 0.000000 0.000000 0.000000 3.325233 -1.277609 -39.363137 -2.330912 -3.185336 -0.164899 -5.679053 1.065948 -0.184580 0.000000 0.000000 0.000000 0.029083 0.010041 -39.549730 -0.000000 0.000000 0.000000 -0.000000 0.000000 0.000000 0.000000 0.000000 0.000000
58.485573 78.851321 320.736964 -0.032386 -0.037826 39.366954 0.049030 0.008701 -39.366969 -0.000000 0.000000 0.000000 -0.569275 0.553597 0.494363 0.000000 0.000000 0.000000 -0.561333 -1.279573 0.365709 0.569630 1.275901 -0.378320 4.077222 -4.239055 1.940991 -9.991875 9.304396 -4.070259 0.000000 0.000000 0.000000 0.000000 0.000000 0.000000 -0.000000 0.000000 0.000000 -0.000000 0.000000 0.000000 3.994573 -3.151812 2.132420 -1.787973 3.512539 -1.702069 0.000000 0.000000 0.000000 0.000000 0.000000 0.000000 4.355056 -1.740917 -39.132619 -3.088918 -3.894412 -0.197502 -7.409253 1.175091 -0.226136 0.000000 0.000000 0.000000 0.049030 0.008701 -39.366969 -0.000000 0.000000 0.000000 -0.000000 0.000000 0.000000 0.000000 0.000000 0.000000
58.473616 78.958006 320.762201 -0.054350 -0.048350 39.153749 0.072674 0.003176 -39.153774 -0.000000 0.000000 0.000000 -0.715372 0.715230 0.626834 0.000000 0.000000 0.000000 -0.637907 -1.643483 0.451585 0.651105 1.638300 -0.470045 4.021389 -4.095191 1.915723 -11.982643 9.890772 -4.646753 0.000000 0.000000 0.000000 0.000000 0.000000 0.000000 -0.000000 0.000000 0.000000 -0.000000 0.000000 0.000000 4.215606 -3.757577 2.248058 -1.207165 4.108538 -1.663919 0.000000 0.000000 0.000000 0.000000 0.000000 0.000000 4.852809 -2.052948 -38.922769 -3.419168 -4.076406 -0.188966 -8.373797 1.114516 -0.277024 0.000000 0.000000 0.000000 0.072674 0.003176 -39.153774 -0.000000 0.000000 0.000000 -0.000000 0.000000 0.000000 0.000000 0.000000 0.000000
58.454410 79.081992 320.793321 -0.081971 -0.057836 38.910121 0.100111 -0.006482 -38.910156 -0.000000 0.000000 0.000000 -0.839440 0.865540 0.742873 0.000000 0.000000 0.000000 -0.659992 -1.976407 0.520692 -0.081048 1.462249 -0.666287 3.951113 -2.603563 1.621135 -13.078581 8.938583 -4.955370 0.000000 0.000000 0.000000 0.000000 0.000000 0.000000 -0.000000 0.000000 0.000000 -0.000000 0.000000 0.000000 3.852131 -4.152840 2.034078 -0.009270 4.424506 -1.319427 0.000000 0.000000 0.000000 0.000000 0.000000 0.000000 4.784384 -2.202731 -38.741047 -3.269448 -3.749457 -0.139617 -8.549467 0.918070 -0.343716 0.000000 0.000000 0.000000 0.100111 -0.006482 -38.910156 -0.000000 0.000000 0.000000 -0.000000 0.000000 0.000000 0.000000 0.000000 0.000000
